<svg width="948" height="621" viewBox="0 0 948 621" fill="none" xmlns="http://www.w3.org/2000/svg">
<path d="M0 188.099V110.558C0 110.558 38.5066 92.5626 69.0364 62.0327C99.5663 31.5029 110.558 0 110.558 0H206.109L741.891 1.50079H837.442C837.442 1.50079 848.434 33.0037 878.964 63.5335C909.493 94.0633 948 112.059 948 112.059V189.6V432.728V510.269C948 510.269 909.493 528.265 878.964 558.795C848.434 589.325 837.442 621 837.442 621H742L206.5 620L110.558 621C110.558 621 100.067 588.324 69.5367 557.794C39.0068 527.264 0.500264 509.269 0.500264 509.269V432.728L0 188.099Z" fill="#C4C4C4"/>
</svg>
