<svg width="375" height="246" viewBox="0 0 375 246" fill="none" xmlns="http://www.w3.org/2000/svg">
<path d="M0 74.4063V43.7335C0 43.7335 15.232 36.6149 27.3087 24.5383C39.3854 12.4616 43.7335 0 43.7335 0H81.5303L293.47 0.593668H331.266C331.266 0.593668 335.615 13.0553 347.691 25.1319C359.768 37.2086 375 44.3272 375 44.3272V75V171.174V201.847C375 201.847 359.768 208.966 347.691 221.042C335.615 233.119 331 246 331 246H293.5H81.5H62.741H44C44 246 39.5833 232.723 27.5066 220.646C15.4299 208.57 0.197889 201.451 0.197889 201.451V171.174L0 74.4063Z" fill="#C4C4C4"/>
</svg>
