<svg width="1" height="1" viewBox="0 0 1 1" fill="none" xmlns="http://www.w3.org/2000/svg">
<path d="M0.0622478 0.758768C-0.0469987 0.509332 0.010311 0.260473 0.0622478 0.050962C0.0719625 0.0117734 0.11188 0 0.145345 0C0.17881 0 0.22794 0.037048 0.223245 0.0792743C0.20247 0.266135 0.156817 0.395007 0.223245 0.594557C0.236875 0.635502 0.248078 0.66448 0.275182 0.696481C0.337102 0.769587 0.444353 0.766845 0.50889 0.696481C0.537752 0.665013 0.54708 0.638071 0.555632 0.594557C0.571211 0.515283 0.56602 0.526608 0.56602 0.458658C0.56602 0.418064 0.606277 0.385046 0.638728 0.385046C0.671179 0.385046 0.713139 0.413243 0.721825 0.447333C0.747793 0.549257 0.769459 0.622374 0.721825 0.758768C0.703739 0.810556 0.692898 0.841567 0.659502 0.883342C0.614017 0.94024 0.575318 0.96402 0.50889 0.985266C0.438828 1.00767 0.393319 1.00194 0.321924 0.985266C0.240323 0.966207 0.186993 0.949563 0.129764 0.883342C0.0942209 0.842215 0.0845811 0.80976 0.0622478 0.758768Z" fill="#C4C4C4"/>
</svg>
