<svg width="1" height="1" viewBox="0 0 1 1" fill="none" xmlns="http://www.w3.org/2000/svg">
<path d="M0.160347 0.27062C0.194187 0.197416 0.1266 0.117176 0.189006 0.066102C0.261143 0.00706319 0.330312 0.133198 0.422145 0.117232C0.508876 0.102152 0.529546 -0.0158926 0.615782 0.0018026C0.705197 0.0201501 0.678891 0.13434 0.746681 0.195475C0.842087 0.281517 1.00297 0.194848 0.999958 0.323299C0.997232 0.439437 0.86902 0.425066 0.819488 0.530142C0.781435 0.610868 0.854558 0.659498 0.786183 0.716842C0.714059 0.777331 0.645918 0.686838 0.553044 0.702123C0.437957 0.721065 0.440676 0.865027 0.329199 0.830722C0.234389 0.801546 0.271995 0.683594 0.209144 0.606836C0.142636 0.525613 -0.00173954 0.542925 1.58639e-05 0.437954C0.00152923 0.347456 0.12237 0.352775 0.160347 0.27062Z" fill="#DADADA"/>
</svg>
