<svg width="313" height="262" viewBox="0 0 313 262" fill="none" xmlns="http://www.w3.org/2000/svg">
<path d="M50.1887 84.8134C60.7806 61.8709 39.6259 36.7234 59.1588 20.7166C81.7376 2.21363 103.388 41.7446 132.131 36.7408C159.278 32.0149 165.748 -4.98078 192.74 0.564942C220.727 6.31511 212.493 42.1027 233.711 61.2626C263.573 88.2283 313.931 61.066 312.987 101.323C312.134 137.721 272.003 133.217 256.5 166.148C244.589 191.448 267.477 206.689 246.075 224.661C223.501 243.618 202.172 215.257 173.103 220.048C137.081 225.984 137.932 271.102 103.039 260.351C73.3638 251.207 85.1344 214.241 65.4621 190.185C44.6452 164.729 -0.544475 170.155 0.00496541 137.256C0.478648 108.894 38.3018 110.561 50.1887 84.8134Z" fill="#DADADA"/>
</svg>
